<mxfile host="app.diagrams.net" modified="2023-11-22T18:14:27.785Z" agent="Mozilla/5.0 (Windows NT 10.0; Win64; x64) AppleWebKit/537.36 (KHTML, like Gecko) Chrome/119.0.0.0 Safari/537.36" etag="PzRqNN57hrQeSwq6Z1fl" version="22.1.3" type="device">
  <diagram name="Page-1" id="3jbg6xsrzYOv4KesXqWa">
    <mxGraphModel dx="1050" dy="542" grid="1" gridSize="10" guides="1" tooltips="1" connect="1" arrows="1" fold="1" page="1" pageScale="1" pageWidth="827" pageHeight="1169" math="0" shadow="0">
      <root>
        <mxCell id="0" />
        <mxCell id="1" parent="0" />
        <mxCell id="mYg_-n5O7ue079QF9Ja9-3" value="" style="edgeStyle=orthogonalEdgeStyle;rounded=0;orthogonalLoop=1;jettySize=auto;html=1;" edge="1" parent="1" source="mYg_-n5O7ue079QF9Ja9-1" target="mYg_-n5O7ue079QF9Ja9-2">
          <mxGeometry relative="1" as="geometry" />
        </mxCell>
        <mxCell id="mYg_-n5O7ue079QF9Ja9-1" value="Start" style="rounded=1;whiteSpace=wrap;html=1;" vertex="1" parent="1">
          <mxGeometry x="400" y="40" width="120" height="40" as="geometry" />
        </mxCell>
        <mxCell id="mYg_-n5O7ue079QF9Ja9-5" value="" style="edgeStyle=orthogonalEdgeStyle;rounded=0;orthogonalLoop=1;jettySize=auto;html=1;" edge="1" parent="1" source="mYg_-n5O7ue079QF9Ja9-2" target="mYg_-n5O7ue079QF9Ja9-4">
          <mxGeometry relative="1" as="geometry" />
        </mxCell>
        <mxCell id="mYg_-n5O7ue079QF9Ja9-2" value="Get the name and the bid of the user" style="rounded=1;whiteSpace=wrap;html=1;" vertex="1" parent="1">
          <mxGeometry x="400" y="120" width="120" height="40" as="geometry" />
        </mxCell>
        <mxCell id="mYg_-n5O7ue079QF9Ja9-8" value="Yes" style="edgeStyle=orthogonalEdgeStyle;rounded=0;orthogonalLoop=1;jettySize=auto;html=1;" edge="1" parent="1" source="mYg_-n5O7ue079QF9Ja9-4" target="mYg_-n5O7ue079QF9Ja9-7">
          <mxGeometry relative="1" as="geometry" />
        </mxCell>
        <mxCell id="mYg_-n5O7ue079QF9Ja9-11" value="No" style="edgeStyle=orthogonalEdgeStyle;rounded=0;orthogonalLoop=1;jettySize=auto;html=1;" edge="1" parent="1" source="mYg_-n5O7ue079QF9Ja9-4" target="mYg_-n5O7ue079QF9Ja9-10">
          <mxGeometry relative="1" as="geometry" />
        </mxCell>
        <mxCell id="mYg_-n5O7ue079QF9Ja9-4" value="Other users remaining?" style="rhombus;whiteSpace=wrap;html=1;rounded=1;" vertex="1" parent="1">
          <mxGeometry x="400" y="200" width="120" height="80" as="geometry" />
        </mxCell>
        <mxCell id="mYg_-n5O7ue079QF9Ja9-9" style="edgeStyle=orthogonalEdgeStyle;rounded=0;orthogonalLoop=1;jettySize=auto;html=1;entryX=0;entryY=0.5;entryDx=0;entryDy=0;" edge="1" parent="1" source="mYg_-n5O7ue079QF9Ja9-7" target="mYg_-n5O7ue079QF9Ja9-2">
          <mxGeometry relative="1" as="geometry">
            <Array as="points">
              <mxPoint x="280" y="140" />
            </Array>
          </mxGeometry>
        </mxCell>
        <mxCell id="mYg_-n5O7ue079QF9Ja9-7" value="Ask the user to give the device to the next" style="whiteSpace=wrap;html=1;rounded=1;" vertex="1" parent="1">
          <mxGeometry x="220" y="220" width="120" height="40" as="geometry" />
        </mxCell>
        <mxCell id="mYg_-n5O7ue079QF9Ja9-13" value="" style="edgeStyle=orthogonalEdgeStyle;rounded=0;orthogonalLoop=1;jettySize=auto;html=1;" edge="1" parent="1" source="mYg_-n5O7ue079QF9Ja9-10" target="mYg_-n5O7ue079QF9Ja9-12">
          <mxGeometry relative="1" as="geometry" />
        </mxCell>
        <mxCell id="mYg_-n5O7ue079QF9Ja9-10" value="Reveal the highest bidder&#39;s name" style="whiteSpace=wrap;html=1;rounded=1;" vertex="1" parent="1">
          <mxGeometry x="400" y="320" width="120" height="40" as="geometry" />
        </mxCell>
        <mxCell id="mYg_-n5O7ue079QF9Ja9-12" value="End" style="whiteSpace=wrap;html=1;rounded=1;" vertex="1" parent="1">
          <mxGeometry x="400" y="400" width="120" height="40" as="geometry" />
        </mxCell>
      </root>
    </mxGraphModel>
  </diagram>
</mxfile>
